HIERARCHY
ROOT Hips
{
	OFFSET 0.0000 0.0000 0.0000
	CHANNELS 6 Xposition Yposition Zposition Zrotation Xrotation Yrotation
	JOINT Ab
	{
		OFFSET -0.0000 8.0846 -0.0000
		CHANNELS 3 Zrotation Xrotation Yrotation
		JOINT Chest
		{
			OFFSET -0.0000 25.0068 -0.0000
			CHANNELS 3 Zrotation Xrotation Yrotation
			JOINT Neck
			{
				OFFSET -0.0000 25.0068 0.0000
				CHANNELS 3 Zrotation Xrotation Yrotation
				JOINT Head
				{
					OFFSET -0.0000 10.7556 0.0000
					CHANNELS 3 Zrotation Xrotation Yrotation
					End Site
					{
						OFFSET -0.0000 16.6222 0.0000
					}
				}
			}
			JOINT LeftCollar
			{
				OFFSET -0.0000 25.0068 0.0000
				CHANNELS 3 Zrotation Xrotation Yrotation
				JOINT LeftShoulder
				{
					OFFSET 19.5556 -0.0000 0.0000
					CHANNELS 3 Zrotation Xrotation Yrotation
					JOINT LeftElbow
					{
						OFFSET 27.1828 0.0000 0.0000
						CHANNELS 3 Zrotation Xrotation Yrotation
						JOINT LeftWrist
						{
							OFFSET 23.3157 0.0000 0.0000
							CHANNELS 3 Zrotation Xrotation Yrotation
							End Site
							{
								OFFSET 0.0000 -14.6667 0.0000
							}
						}
					}
				}
			}
			JOINT RightCollar
			{
				OFFSET -0.0000 25.0068 0.0000
				CHANNELS 3 Zrotation Xrotation Yrotation
				JOINT RightShoulder
				{
					OFFSET -19.5556 0.0000 0.0000
					CHANNELS 3 Zrotation Xrotation Yrotation
					JOINT RightElbow
					{
						OFFSET -27.1828 0.0000 0.0000
						CHANNELS 3 Zrotation Xrotation Yrotation
						JOINT RightWrist
						{
							OFFSET -23.3157 0.0000 0.0000
							CHANNELS 3 Zrotation Xrotation Yrotation
							End Site
							{
								OFFSET -0.0000 -14.6667 0.0000
							}
						}
					}
				}
			}
		}
	}
	JOINT LeftHip
	{
		OFFSET 11.7333 0.0000 0.0000
		CHANNELS 3 Zrotation Xrotation Yrotation
		JOINT LeftKnee
		{
			OFFSET -0.0000 -40.8688 0.0000
			CHANNELS 3 Zrotation Xrotation Yrotation
			JOINT LeftAnkle
			{
				OFFSET -0.0000 -44.4337 0.0000
				CHANNELS 3 Zrotation Xrotation Yrotation
				End Site
				{
					OFFSET -0.0000 -4.8889 16.6222
				}
			}
		}
	}
	JOINT RightHip
	{
		OFFSET -11.7333 0.0000 0.0000
		CHANNELS 3 Zrotation Xrotation Yrotation
		JOINT RightKnee
		{
			OFFSET -0.0000 -40.8688 0.0000
			CHANNELS 3 Zrotation Xrotation Yrotation
			JOINT RightAnkle
			{
				OFFSET -0.0000 -44.4337 0.0000
				CHANNELS 3 Zrotation Xrotation Yrotation
				End Site
				{
					OFFSET -0.0000 -4.8889 16.6222
				}
			}
		}
	}
}
MOTION
Frames: 16
Frame Time: 0.010000
-4.6762 88.8084 190.2691 2.7842 0.5280 175.2375 1.3065 359.8724 358.7048 358.9814 12.5820 358.8151 2.1476 355.3598 0.3430 0.9217 21.8499 0.0596 338.9985 358.5385 7.7762 301.4928 32.3437 352.4980 16.2451 354.5659 323.3119 81.3569 1.8647 340.8128 22.3166 359.3966 356.9033 59.2098 42.4674 10.0835 338.2299 354.4355 28.3575 279.1770 353.6884 19.1062 1.1312 356.7865 356.0068 358.4649 11.9294 359.2353 1.0616 352.9777 22.1169 2.4509 350.9618 359.8329 359.2686 19.3118 9.8073 357.4404 346.4643 338.4359 
-4.6960 88.8109 190.2678 2.7855 0.5070 175.2699 1.2807 359.8811 358.7047 359.0050 12.5939 358.8123 2.1899 355.3324 0.3022 0.8741 21.8510 0.0412 339.0043 358.5593 7.7988 301.5171 32.5157 352.4431 16.2860 354.5603 323.3779 81.4025 1.7868 340.8955 22.2862 359.3702 356.8761 59.2297 42.5272 10.0942 338.1334 354.4154 28.3531 279.2723 353.5639 19.0320 1.1271 356.7521 355.9830 358.4510 11.9361 359.2729 1.1524 353.0568 22.0995 2.4294 350.9498 359.8265 359.2871 19.3010 9.7739 357.4005 346.4974 338.4453 
-4.7206 88.8119 190.2564 2.7782 0.5129 175.2953 1.2486 359.8940 358.7046 359.0253 12.6407 358.8136 2.1948 355.3062 0.2787 0.8852 21.8246 0.0094 339.0046 358.5393 7.8523 301.5521 32.7610 352.3552 16.4792 354.4827 323.4192 81.3311 1.7521 341.0916 22.2836 359.3902 356.8638 59.1455 42.4750 10.1618 338.0629 354.4556 27.8641 279.3114 352.1218 18.0633 1.1046 356.7440 355.9887 358.4463 11.9653 359.2393 1.0367 352.9600 22.0801 2.4015 350.9704 359.8250 359.2894 19.2876 9.7742 357.4431 346.4515 338.4432 
-4.7466 88.8144 190.2472 2.7770 0.5097 175.3159 1.2025 359.9099 358.7254 359.0762 12.6598 358.8284 2.2112 355.3027 0.2537 0.8691 21.8029 359.9778 338.9910 358.5720 7.8110 301.4974 32.5619 352.3800 16.3255 354.5537 323.3500 81.4313 1.8019 340.9917 22.2650 359.3632 356.8604 59.1321 42.4405 10.1553 338.0036 354.4744 27.9083 279.3756 352.0686 17.9895 1.0886 356.7396 355.9648 358.4406 11.9695 359.2357 1.2807 353.0494 22.1283 2.3849 350.9954 359.8557 359.2934 19.2533 9.7060 357.9880 346.1168 338.2495 
-4.7766 88.8169 190.2444 2.7680 0.4768 175.3317 1.1931 359.9164 358.7199 359.0683 12.6428 358.8238 2.2100 355.3438 0.2174 0.8877 21.7434 359.9545 339.0184 358.5476 7.7880 301.4152 32.5329 352.4337 16.4012 354.5527 323.2780 81.4149 1.7872 340.9990 22.2722 359.3908 356.8596 59.1078 42.3894 10.1522 338.6982 354.6814 28.4269 278.3652 353.5086 20.6745 1.0663 356.6953 355.9556 358.4310 11.9936 359.2400 1.0999 352.9608 22.0915 2.3512 350.9673 359.8998 359.3244 19.2474 9.6322 357.4902 346.4274 338.4870 
-4.8058 88.8201 190.2378 2.7688 0.4720 175.3622 1.1732 359.9446 358.7239 359.0763 12.6554 358.8250 2.2207 355.3117 0.2069 0.8962 21.7484 359.9044 339.0451 358.5512 7.7250 301.3031 32.2312 352.5403 16.2010 354.6198 323.1533 81.5361 1.7950 340.7347 22.2692 359.3712 356.8496 59.0639 42.4066 10.1810 338.6739 354.5840 28.4977 278.5383 353.5635 20.7200 1.0477 356.6658 356.0430 358.4427 12.0363 359.1541 1.1461 352.9516 22.0761 2.3289 350.9791 359.9143 359.3355 19.2324 9.5935 357.6090 346.3896 338.5382 
-4.8388 88.8218 190.2220 2.7706 0.4864 175.3736 1.1755 359.9939 358.7266 359.0468 12.6486 358.8342 2.2334 355.3199 0.1946 0.9229 21.7310 359.8566 339.0512 358.5520 7.8032 301.3624 32.5754 352.4689 16.3786 354.5224 323.2225 81.4591 1.7540 340.9274 22.2851 359.3983 356.8640 59.0403 42.3837 10.1697 338.7496 354.5746 28.5261 278.5169 353.5783 20.8241 1.0307 356.6904 356.0304 358.4348 12.0309 359.1376 1.1692 352.9427 22.1003 2.3060 351.0140 359.9413 359.3479 19.2063 9.5286 357.5532 346.3890 338.5224 
-4.8773 88.8259 190.2267 2.7599 0.4255 175.4000 1.1351 359.9831 358.7529 359.0648 12.6525 358.8559 2.2449 355.2888 0.0934 0.9425 21.7326 359.8866 339.0645 358.5738 7.7377 301.2926 32.3314 352.5207 16.4648 354.4021 322.6012 81.2641 2.8008 341.9420 22.2720 359.3647 356.8489 59.0496 42.4074 10.1595 338.6575 354.4797 28.5712 278.6417 353.5246 20.8281 0.9927 356.6062 356.0551 358.4531 12.0558 359.0911 1.0615 352.8780 22.1611 2.2679 350.9458 359.9374 359.3574 19.2171 9.5063 357.5370 346.3933 338.5425 
-4.9153 88.8282 190.2183 2.7684 0.3978 175.4198 1.1374 359.9969 358.7558 359.0639 12.6485 358.8608 2.2021 355.3031 0.0999 1.0416 21.7103 359.7775 339.0614 358.5452 7.7494 301.2990 32.4853 352.5176 16.5908 354.3493 322.5636 81.2229 2.8094 342.0888 22.2705 359.3928 356.8410 59.0362 42.3584 10.1442 338.7273 354.5176 28.6085 278.6333 353.5472 20.8571 0.9884 356.5849 355.9930 358.4212 12.0420 359.2000 0.9996 352.8757 22.0913 2.2515 350.9326 359.9584 359.3634 19.2020 9.4660 357.5591 346.3967 338.5371 
-4.9666 88.8299 190.2185 2.7619 0.3523 175.4766 1.1541 0.0201 358.7347 359.0311 12.6115 358.8445 2.1602 355.3114 359.9929 1.0867 21.6933 359.8116 339.0706 358.5746 7.7230 301.2476 32.3399 352.5537 16.4560 354.4022 322.5414 81.3417 2.7622 341.9642 22.2692 359.3586 356.8517 59.0665 42.3261 10.0653 338.6184 354.4974 28.7164 278.7909 353.5719 20.7748 0.9473 356.5190 355.9334 358.4196 12.0613 359.2036 1.2174 352.9516 22.0418 2.1936 350.8939 359.9845 359.3874 19.2536 9.3910 357.6965 346.3449 338.6417 
-5.0137 88.8295 190.2070 2.7670 0.3441 175.4941 1.1843 0.0574 358.7378 358.9730 12.5978 358.8507 2.1434 355.3247 0.0132 1.1377 21.6950 359.7563 339.0989 358.5502 7.7381 301.1702 32.2484 352.5944 16.4538 354.3790 322.4376 81.4145 2.8192 341.8556 22.2732 359.3864 356.9043 59.0793 42.3176 10.0103 338.6788 354.4751 28.7190 278.9445 353.5388 20.7789 0.9249 356.4990 355.9671 358.4162 12.0926 359.1337 1.1136 352.8861 22.1328 2.1565 350.8929 0.0089 359.4166 19.2539 9.3550 357.6296 346.3620 338.6200 
-5.0607 88.8334 190.1972 2.7696 0.3305 175.5076 1.1604 0.0664 358.7586 358.9798 12.6377 358.8739 2.1343 355.3215 359.9953 1.1780 21.6512 359.7015 339.1087 358.5861 7.6702 301.0815 31.8416 352.6549 16.1519 354.5171 322.3307 81.5942 2.8174 341.5171 22.2564 359.4071 356.9178 59.0393 42.3293 10.0287 338.6095 354.4691 28.7815 279.0537 353.5376 20.7291 0.8942 356.4886 355.9535 358.4215 12.0892 359.1745 1.1845 352.9202 22.0376 2.1291 350.8840 0.0157 359.4121 19.2548 9.3815 357.7542 346.3090 338.6246 
-5.1147 88.8332 190.1882 2.7959 0.3143 175.5102 1.1585 0.0831 358.7913 358.9934 12.6707 358.9043 2.1521 355.2706 359.9629 1.1480 21.6982 359.6640 339.0885 358.5552 7.7827 301.2098 32.3767 352.4889 16.4827 354.3245 322.4354 81.4132 2.7321 341.8277 22.2121 359.3815 356.8978 58.9898 42.6256 10.1605 338.3885 354.4165 28.5371 279.1601 353.4169 20.4376 0.8948 356.4892 355.9786 358.4124 12.0721 359.1405 1.1137 352.8626 22.0970 2.1111 350.8801 0.0977 359.4503 19.2458 9.3176 357.6801 346.3438 338.6227 
-5.1678 88.8355 190.1770 2.8097 0.3176 175.5167 1.1802 0.1764 358.7887 358.9516 12.5864 358.9067 2.1314 355.3215 359.9383 1.2081 21.6886 359.6079 339.0838 358.5099 7.8806 301.2814 32.8002 352.4396 16.6996 354.2453 322.5779 81.4363 2.6043 342.0864 22.2364 359.4082 356.9102 58.9941 42.5562 10.0686 338.5418 354.4608 28.7351 278.3077 354.3693 20.5540 0.8743 356.4936 355.9863 358.4149 12.0756 359.0949 1.1711 352.8405 22.1288 2.0895 350.8874 0.1074 359.4491 19.2543 9.3291 357.8020 346.2701 338.6342 
-5.2279 88.8374 190.1560 2.8138 0.3140 175.5230 1.2202 0.2250 358.7812 358.8782 12.5638 358.9081 2.1197 355.3244 359.9280 1.1866 21.7024 359.6263 339.0683 358.5359 8.0534 301.4322 33.2908 352.2454 16.4952 354.4430 322.9413 83.5184 2.0699 343.1240 22.2544 359.3729 356.9498 59.0107 42.5622 9.9600 338.4593 354.3766 28.8574 278.4111 354.4081 20.5984 0.8446 356.5143 355.9513 358.3909 12.0572 359.1476 1.0880 352.8263 22.0949 2.0487 350.9152 0.1617 359.4715 19.2202 9.2731 357.8384 346.2586 338.6338 
-5.2915 88.8378 190.1414 2.8168 0.2906 175.5192 1.2130 0.2368 358.7922 358.8514 12.5786 358.9224 2.1214 355.3171 359.9471 1.2381 21.7249 359.6237 339.0886 358.5106 8.1746 301.4305 33.4150 352.1054 16.6644 354.3767 323.0310 83.2618 2.0483 343.0631 22.2403 359.4133 356.9757 58.9898 42.4573 9.9574 338.4677 354.4131 28.7895 279.4673 353.3940 20.5529 0.8103 356.5129 355.9405 358.3844 12.0273 359.1543 1.1363 352.8428 22.1135 2.0075 350.9129 0.2604 359.5048 19.1954 9.2042 357.8285 346.2665 338.6416 
